<?xml version="1.0" standalone="no"?>
<!DOCTYPE svg PUBLIC "-//W3C//DTD SVG 20010904//EN"
 "http://www.w3.org/TR/2001/REC-SVG-20010904/DTD/svg10.dtd">
<svg version="1.0" xmlns="http://www.w3.org/2000/svg"
 width="512.000000pt" height="512.000000pt" viewBox="0 0 512.000000 512.000000"
 preserveAspectRatio="xMidYMid meet">
<g transform="translate(0.000000,512.000000) scale(0.100000,-0.100000)"
fill="#000000" stroke="none">
<path fill-rule="evenodd" d="M430 5113 c-178 -30 -327 -154 -398 -330 l-27 -68 0 -2150 0 -2150
24 -65 c57 -155 165 -265 317 -322 l59 -23 2125 -3 c2096 -2 2126 -2 2204 18
93 23 152 56 223 123 62 59 105 122 135 203 l23 59 3 2123 c3 2321 6 2181 -55
2310 -35 76 -149 190 -225 225 -127 60 10 57 -2283 55 -1155 0 -2111 -3 -2125
-5z m1393 -1494 c473 -332 735 -509 746 -506 10 2 343 232 740 511 l722 506
294 0 295 0 0 -1575 0 -1575 -352 2 -353 3 -5 1128 -5 1128 -490 -328 -490
-329 -3 -802 -2 -802 -355 0 -355 0 0 800 0 800 -495 330 c-272 181 -497 330
-500 330 -3 0 -5 -509 -5 -1130 l0 -1130 -352 2 -353 3 -3 1560 c-1 858 0
1566 3 1573 3 9 72 12 297 12 l293 0 728 -511z"/>
<path fill="#ffffff" d="M1823 3619 c473 -332 735 -509 746 -506 10 2 343 232 740 511 l722 506
294 0 295 0 0 -1575 0 -1575 -352 2 -353 3 -5 1128 -5 1128 -490 -328 -490
-329 -3 -802 -2 -802 -355 0 -355 0 0 800 0 800 -495 330 c-272 181 -497 330
-500 330 -3 0 -5 -509 -5 -1130 l0 -1130 -352 2 -353 3 -3 1560 c-1 858 0
1566 3 1573 3 9 72 12 297 12 l293 0 728 -511z"/>
</g>
</svg>